<?xml version="1.0" encoding="utf-8" standalone="no"?>
<!DOCTYPE svg PUBLIC "-//W3C//DTD SVG 1.1//EN"
  "http://www.w3.org/Graphics/SVG/1.1/DTD/svg11.dtd">
<svg xmlns:xlink="http://www.w3.org/1999/xlink" width="476.445pt" height="309.30825pt" viewBox="0 0 476.445 309.30825" xmlns="http://www.w3.org/2000/svg" version="1.1">
 <metadata>
  <rdf:RDF xmlns:dc="http://purl.org/dc/elements/1.1/" xmlns:cc="http://creativecommons.org/ns#" xmlns:rdf="http://www.w3.org/1999/02/22-rdf-syntax-ns#">
   <cc:Work>
    <dc:type rdf:resource="http://purl.org/dc/dcmitype/StillImage"/>
    <dc:date>2025-04-18T14:46:56.803401</dc:date>
    <dc:format>image/svg+xml</dc:format>
    <dc:creator>
     <cc:Agent>
      <dc:title>Matplotlib v3.9.2, https://matplotlib.org/</dc:title>
     </cc:Agent>
    </dc:creator>
   </cc:Work>
  </rdf:RDF>
 </metadata>
 <defs>
  <style type="text/css">*{stroke-linejoin: round; stroke-linecap: butt}</style>
 </defs>
 <g id="figure_1">
  <g id="patch_1">
   <path d="M 0 309.30825 
L 476.445 309.30825 
L 476.445 0 
L 0 0 
z
" style="fill: #ffffff"/>
  </g>
  <g id="axes_1">
   <g id="patch_2">
    <path d="M 20.878125 288.430125 
L 377.998125 288.430125 
L 377.998125 22.318125 
L 20.878125 22.318125 
z
" style="fill: #ffffff"/>
   </g>
   <g id="PathCollection_1">
    <defs>
     <path id="C0_0_75f317027f" d="M 0 2.5 
C 0.663008 2.5 1.29895 2.236584 1.767767 1.767767 
C 2.236584 1.29895 2.5 0.663008 2.5 -0 
C 2.5 -0.663008 2.236584 -1.29895 1.767767 -1.767767 
C 1.29895 -2.236584 0.663008 -2.5 0 -2.5 
C -0.663008 -2.5 -1.29895 -2.236584 -1.767767 -1.767767 
C -2.236584 -1.29895 -2.5 -0.663008 -2.5 0 
C -2.5 0.663008 -2.236584 1.29895 -1.767767 1.767767 
C -1.29895 2.236584 -0.663008 2.5 0 2.5 
z
"/>
    </defs>
    <g clip-path="url(#pb0dd0b35ce)">
     <use xlink:href="#C0_0_75f317027f" x="348.982991" y="236.709289" style="fill: #1f77b4"/>
    </g>
    <g clip-path="url(#pb0dd0b35ce)">
     <use xlink:href="#C0_0_75f317027f" x="47.593941" y="255.211066" style="fill: #ff7f0e"/>
    </g>
    <g clip-path="url(#pb0dd0b35ce)">
     <use xlink:href="#C0_0_75f317027f" x="55.043647" y="265.061272" style="fill: #ff7f0e"/>
    </g>
    <g clip-path="url(#pb0dd0b35ce)">
     <use xlink:href="#C0_0_75f317027f" x="352.310475" y="197.147258" style="fill: #1f77b4"/>
    </g>
    <g clip-path="url(#pb0dd0b35ce)">
     <use xlink:href="#C0_0_75f317027f" x="59.515438" y="82.685315" style="fill: #ff7f0e"/>
    </g>
    <g clip-path="url(#pb0dd0b35ce)">
     <use xlink:href="#C0_0_75f317027f" x="326.156689" y="206.346185" style="fill: #1f77b4"/>
    </g>
    <g clip-path="url(#pb0dd0b35ce)">
     <use xlink:href="#C0_0_75f317027f" x="95.146975" y="138.429973" style="fill: #ff7f0e"/>
    </g>
    <g clip-path="url(#pb0dd0b35ce)">
     <use xlink:href="#C0_0_75f317027f" x="296.010769" y="231.275348" style="fill: #1f77b4"/>
    </g>
    <g clip-path="url(#pb0dd0b35ce)">
     <use xlink:href="#C0_0_75f317027f" x="338.538577" y="239.347082" style="fill: #1f77b4"/>
    </g>
    <g clip-path="url(#pb0dd0b35ce)">
     <use xlink:href="#C0_0_75f317027f" x="324.416827" y="192.230265" style="fill: #1f77b4"/>
    </g>
    <g clip-path="url(#pb0dd0b35ce)">
     <use xlink:href="#C0_0_75f317027f" x="56.039501" y="250.879529" style="fill: #ff7f0e"/>
    </g>
    <g clip-path="url(#pb0dd0b35ce)">
     <use xlink:href="#C0_0_75f317027f" x="60.86949" y="272.12785" style="fill: #ff7f0e"/>
    </g>
    <g clip-path="url(#pb0dd0b35ce)">
     <use xlink:href="#C0_0_75f317027f" x="56.146742" y="87.313684" style="fill: #ff7f0e"/>
    </g>
    <g clip-path="url(#pb0dd0b35ce)">
     <use xlink:href="#C0_0_75f317027f" x="38.896936" y="121.981841" style="fill: #ff7f0e"/>
    </g>
    <g clip-path="url(#pb0dd0b35ce)">
     <use xlink:href="#C0_0_75f317027f" x="53.44598" y="261.927466" style="fill: #ff7f0e"/>
    </g>
    <g clip-path="url(#pb0dd0b35ce)">
     <use xlink:href="#C0_0_75f317027f" x="44.396482" y="109.150661" style="fill: #ff7f0e"/>
    </g>
    <g clip-path="url(#pb0dd0b35ce)">
     <use xlink:href="#C0_0_75f317027f" x="321.416709" y="232.90893" style="fill: #1f77b4"/>
    </g>
    <g clip-path="url(#pb0dd0b35ce)">
     <use xlink:href="#C0_0_75f317027f" x="318.972261" y="248.436855" style="fill: #1f77b4"/>
    </g>
    <g clip-path="url(#pb0dd0b35ce)">
     <use xlink:href="#C0_0_75f317027f" x="303.345596" y="234.887417" style="fill: #1f77b4"/>
    </g>
    <g clip-path="url(#pb0dd0b35ce)">
     <use xlink:href="#C0_0_75f317027f" x="55.187387" y="229.58376" style="fill: #ff7f0e"/>
    </g>
    <g clip-path="url(#pb0dd0b35ce)">
     <use xlink:href="#C0_0_75f317027f" x="296.425943" y="231.731383" style="fill: #1f77b4"/>
    </g>
    <g clip-path="url(#pb0dd0b35ce)">
     <use xlink:href="#C0_0_75f317027f" x="96.646982" y="143.458262" style="fill: #ff7f0e"/>
    </g>
    <g clip-path="url(#pb0dd0b35ce)">
     <use xlink:href="#C0_0_75f317027f" x="42.028476" y="104.35356" style="fill: #ff7f0e"/>
    </g>
    <g clip-path="url(#pb0dd0b35ce)">
     <use xlink:href="#C0_0_75f317027f" x="46.857209" y="251.67606" style="fill: #ff7f0e"/>
    </g>
    <g clip-path="url(#pb0dd0b35ce)">
     <use xlink:href="#C0_0_75f317027f" x="96.70589" y="144.272793" style="fill: #ff7f0e"/>
    </g>
    <g clip-path="url(#pb0dd0b35ce)">
     <use xlink:href="#C0_0_75f317027f" x="40.427273" y="128.518311" style="fill: #ff7f0e"/>
    </g>
    <g clip-path="url(#pb0dd0b35ce)">
     <use xlink:href="#C0_0_75f317027f" x="322.681756" y="240.009435" style="fill: #1f77b4"/>
    </g>
    <g clip-path="url(#pb0dd0b35ce)">
     <use xlink:href="#C0_0_75f317027f" x="341.804166" y="177.181326" style="fill: #1f77b4"/>
    </g>
    <g clip-path="url(#pb0dd0b35ce)">
     <use xlink:href="#C0_0_75f317027f" x="40.840657" y="129.310724" style="fill: #ff7f0e"/>
    </g>
    <g clip-path="url(#pb0dd0b35ce)">
     <use xlink:href="#C0_0_75f317027f" x="296.426922" y="232.380033" style="fill: #1f77b4"/>
    </g>
    <g clip-path="url(#pb0dd0b35ce)">
     <use xlink:href="#C0_0_75f317027f" x="297.357274" y="233.157242" style="fill: #1f77b4"/>
    </g>
    <g clip-path="url(#pb0dd0b35ce)">
     <use xlink:href="#C0_0_75f317027f" x="337.423968" y="239.872891" style="fill: #1f77b4"/>
    </g>
    <g clip-path="url(#pb0dd0b35ce)">
     <use xlink:href="#C0_0_75f317027f" x="333.401583" y="185.5782" style="fill: #1f77b4"/>
    </g>
    <g clip-path="url(#pb0dd0b35ce)">
     <use xlink:href="#C0_0_75f317027f" x="46.339668" y="254.714803" style="fill: #ff7f0e"/>
    </g>
    <g clip-path="url(#pb0dd0b35ce)">
     <use xlink:href="#C0_0_75f317027f" x="349.548229" y="234.842126" style="fill: #1f77b4"/>
    </g>
    <g clip-path="url(#pb0dd0b35ce)">
     <use xlink:href="#C0_0_75f317027f" x="60.772216" y="274.08237" style="fill: #ff7f0e"/>
    </g>
    <g clip-path="url(#pb0dd0b35ce)">
     <use xlink:href="#C0_0_75f317027f" x="56.002783" y="230.440119" style="fill: #ff7f0e"/>
    </g>
    <g clip-path="url(#pb0dd0b35ce)">
     <use xlink:href="#C0_0_75f317027f" x="64.612367" y="73.827664" style="fill: #ff7f0e"/>
    </g>
    <g clip-path="url(#pb0dd0b35ce)">
     <use xlink:href="#C0_0_75f317027f" x="62.047901" y="43.278648" style="fill: #ff7f0e"/>
    </g>
    <g clip-path="url(#pb0dd0b35ce)">
     <use xlink:href="#C0_0_75f317027f" x="304.094885" y="236.629625" style="fill: #1f77b4"/>
    </g>
    <g clip-path="url(#pb0dd0b35ce)">
     <use xlink:href="#C0_0_75f317027f" x="49.21765" y="254.68893" style="fill: #ff7f0e"/>
    </g>
    <g clip-path="url(#pb0dd0b35ce)">
     <use xlink:href="#C0_0_75f317027f" x="361.156797" y="185.370992" style="fill: #1f77b4"/>
    </g>
    <g clip-path="url(#pb0dd0b35ce)">
     <use xlink:href="#C0_0_75f317027f" x="318.482042" y="244.743925" style="fill: #1f77b4"/>
    </g>
    <g clip-path="url(#pb0dd0b35ce)">
     <use xlink:href="#C0_0_75f317027f" x="53.089714" y="255.223126" style="fill: #ff7f0e"/>
    </g>
    <g clip-path="url(#pb0dd0b35ce)">
     <use xlink:href="#C0_0_75f317027f" x="46.568718" y="224.810988" style="fill: #ff7f0e"/>
    </g>
    <g clip-path="url(#pb0dd0b35ce)">
     <use xlink:href="#C0_0_75f317027f" x="345.746715" y="241.542723" style="fill: #1f77b4"/>
    </g>
    <g clip-path="url(#pb0dd0b35ce)">
     <use xlink:href="#C0_0_75f317027f" x="60.600465" y="35.620258" style="fill: #ff7f0e"/>
    </g>
    <g clip-path="url(#pb0dd0b35ce)">
     <use xlink:href="#C0_0_75f317027f" x="46.563508" y="237.450373" style="fill: #ff7f0e"/>
    </g>
    <g clip-path="url(#pb0dd0b35ce)">
     <use xlink:href="#C0_0_75f317027f" x="333.513036" y="184.830341" style="fill: #1f77b4"/>
    </g>
    <g clip-path="url(#pb0dd0b35ce)">
     <use xlink:href="#C0_0_75f317027f" x="352.037161" y="239.460312" style="fill: #1f77b4"/>
    </g>
    <g clip-path="url(#pb0dd0b35ce)">
     <use xlink:href="#C0_0_75f317027f" x="342.454751" y="171.734991" style="fill: #1f77b4"/>
    </g>
    <g clip-path="url(#pb0dd0b35ce)">
     <use xlink:href="#C0_0_75f317027f" x="64.167056" y="58.163181" style="fill: #ff7f0e"/>
    </g>
    <g clip-path="url(#pb0dd0b35ce)">
     <use xlink:href="#C0_0_75f317027f" x="354.81369" y="191.13113" style="fill: #1f77b4"/>
    </g>
    <g clip-path="url(#pb0dd0b35ce)">
     <use xlink:href="#C0_0_75f317027f" x="58.647954" y="44.205713" style="fill: #ff7f0e"/>
    </g>
    <g clip-path="url(#pb0dd0b35ce)">
     <use xlink:href="#C0_0_75f317027f" x="352.186787" y="239.212334" style="fill: #1f77b4"/>
    </g>
    <g clip-path="url(#pb0dd0b35ce)">
     <use xlink:href="#C0_0_75f317027f" x="45.99469" y="234.059046" style="fill: #ff7f0e"/>
    </g>
    <g clip-path="url(#pb0dd0b35ce)">
     <use xlink:href="#C0_0_75f317027f" x="361.765398" y="183.739427" style="fill: #1f77b4"/>
    </g>
    <g clip-path="url(#pb0dd0b35ce)">
     <use xlink:href="#C0_0_75f317027f" x="54.195385" y="226.396177" style="fill: #ff7f0e"/>
    </g>
    <g clip-path="url(#pb0dd0b35ce)">
     <use xlink:href="#C0_0_75f317027f" x="64.578605" y="84.060514" style="fill: #ff7f0e"/>
    </g>
    <g clip-path="url(#pb0dd0b35ce)">
     <use xlink:href="#C0_0_75f317027f" x="340.135781" y="174.234544" style="fill: #1f77b4"/>
    </g>
    <g clip-path="url(#pb0dd0b35ce)">
     <use xlink:href="#C0_0_75f317027f" x="55.159157" y="50.10078" style="fill: #ff7f0e"/>
    </g>
    <g clip-path="url(#pb0dd0b35ce)">
     <use xlink:href="#C0_0_75f317027f" x="297.644896" y="234.589821" style="fill: #1f77b4"/>
    </g>
    <g clip-path="url(#pb0dd0b35ce)">
     <use xlink:href="#C0_0_75f317027f" x="56.160761" y="267.629973" style="fill: #ff7f0e"/>
    </g>
    <g clip-path="url(#pb0dd0b35ce)">
     <use xlink:href="#C0_0_75f317027f" x="336.005651" y="243.576351" style="fill: #1f77b4"/>
    </g>
    <g clip-path="url(#pb0dd0b35ce)">
     <use xlink:href="#C0_0_75f317027f" x="61.471329" y="240.525089" style="fill: #ff7f0e"/>
    </g>
    <g clip-path="url(#pb0dd0b35ce)">
     <use xlink:href="#C0_0_75f317027f" x="351.999349" y="182.597629" style="fill: #1f77b4"/>
    </g>
    <g clip-path="url(#pb0dd0b35ce)">
     <use xlink:href="#C0_0_75f317027f" x="324.024371" y="240.37974" style="fill: #1f77b4"/>
    </g>
    <g clip-path="url(#pb0dd0b35ce)">
     <use xlink:href="#C0_0_75f317027f" x="57.517434" y="44.045522" style="fill: #ff7f0e"/>
    </g>
    <g clip-path="url(#pb0dd0b35ce)">
     <use xlink:href="#C0_0_75f317027f" x="45.25421" y="95.663277" style="fill: #ff7f0e"/>
    </g>
    <g clip-path="url(#pb0dd0b35ce)">
     <use xlink:href="#C0_0_75f317027f" x="351.066627" y="217.726842" style="fill: #1f77b4"/>
    </g>
    <g clip-path="url(#pb0dd0b35ce)">
     <use xlink:href="#C0_0_75f317027f" x="61.450814" y="34.871523" style="fill: #ff7f0e"/>
    </g>
    <g clip-path="url(#pb0dd0b35ce)">
     <use xlink:href="#C0_0_75f317027f" x="357.225748" y="192.523104" style="fill: #1f77b4"/>
    </g>
    <g clip-path="url(#pb0dd0b35ce)">
     <use xlink:href="#C0_0_75f317027f" x="345.243952" y="235.385517" style="fill: #1f77b4"/>
    </g>
    <g clip-path="url(#pb0dd0b35ce)">
     <use xlink:href="#C0_0_75f317027f" x="337.148941" y="240.466568" style="fill: #1f77b4"/>
    </g>
    <g clip-path="url(#pb0dd0b35ce)">
     <use xlink:href="#C0_0_75f317027f" x="63.448335" y="41.807775" style="fill: #ff7f0e"/>
    </g>
    <g clip-path="url(#pb0dd0b35ce)">
     <use xlink:href="#C0_0_75f317027f" x="61.330783" y="273.128403" style="fill: #ff7f0e"/>
    </g>
    <g clip-path="url(#pb0dd0b35ce)">
     <use xlink:href="#C0_0_75f317027f" x="65.041798" y="84.18732" style="fill: #ff7f0e"/>
    </g>
    <g clip-path="url(#pb0dd0b35ce)">
     <use xlink:href="#C0_0_75f317027f" x="44.725986" y="116.596641" style="fill: #ff7f0e"/>
    </g>
    <g clip-path="url(#pb0dd0b35ce)">
     <use xlink:href="#C0_0_75f317027f" x="58.686816" y="257.975026" style="fill: #ff7f0e"/>
    </g>
    <g clip-path="url(#pb0dd0b35ce)">
     <use xlink:href="#C0_0_75f317027f" x="353.133521" y="190.313358" style="fill: #1f77b4"/>
    </g>
    <g clip-path="url(#pb0dd0b35ce)">
     <use xlink:href="#C0_0_75f317027f" x="317.087345" y="247.653331" style="fill: #1f77b4"/>
    </g>
    <g clip-path="url(#pb0dd0b35ce)">
     <use xlink:href="#C0_0_75f317027f" x="62.193521" y="42.360347" style="fill: #ff7f0e"/>
    </g>
    <g clip-path="url(#pb0dd0b35ce)">
     <use xlink:href="#C0_0_75f317027f" x="64.375699" y="61.360516" style="fill: #ff7f0e"/>
    </g>
    <g clip-path="url(#pb0dd0b35ce)">
     <use xlink:href="#C0_0_75f317027f" x="62.879305" y="48.313671" style="fill: #ff7f0e"/>
    </g>
    <g clip-path="url(#pb0dd0b35ce)">
     <use xlink:href="#C0_0_75f317027f" x="349.675382" y="178.733645" style="fill: #1f77b4"/>
    </g>
    <g clip-path="url(#pb0dd0b35ce)">
     <use xlink:href="#C0_0_75f317027f" x="41.210118" y="118.136204" style="fill: #ff7f0e"/>
    </g>
    <g clip-path="url(#pb0dd0b35ce)">
     <use xlink:href="#C0_0_75f317027f" x="97.019811" y="153.940524" style="fill: #ff7f0e"/>
    </g>
    <g clip-path="url(#pb0dd0b35ce)">
     <use xlink:href="#C0_0_75f317027f" x="46.143666" y="109.414038" style="fill: #ff7f0e"/>
    </g>
    <g clip-path="url(#pb0dd0b35ce)">
     <use xlink:href="#C0_0_75f317027f" x="66.232791" y="246.880559" style="fill: #ff7f0e"/>
    </g>
    <g clip-path="url(#pb0dd0b35ce)">
     <use xlink:href="#C0_0_75f317027f" x="64.859324" y="86.181999" style="fill: #ff7f0e"/>
    </g>
    <g clip-path="url(#pb0dd0b35ce)">
     <use xlink:href="#C0_0_75f317027f" x="44.35272" y="97.793108" style="fill: #ff7f0e"/>
    </g>
    <g clip-path="url(#pb0dd0b35ce)">
     <use xlink:href="#C0_0_75f317027f" x="41.784145" y="116.685917" style="fill: #ff7f0e"/>
    </g>
    <g clip-path="url(#pb0dd0b35ce)">
     <use xlink:href="#C0_0_75f317027f" x="51.421232" y="257.485843" style="fill: #ff7f0e"/>
    </g>
    <g clip-path="url(#pb0dd0b35ce)">
     <use xlink:href="#C0_0_75f317027f" x="324.027333" y="214.745827" style="fill: #1f77b4"/>
    </g>
    <g clip-path="url(#pb0dd0b35ce)">
     <use xlink:href="#C0_0_75f317027f" x="60.871023" y="36.78096" style="fill: #ff7f0e"/>
    </g>
    <g clip-path="url(#pb0dd0b35ce)">
     <use xlink:href="#C0_0_75f317027f" x="356.566096" y="200.799932" style="fill: #1f77b4"/>
    </g>
    <g clip-path="url(#pb0dd0b35ce)">
     <use xlink:href="#C0_0_75f317027f" x="60.59711" y="236.449584" style="fill: #ff7f0e"/>
    </g>
    <g clip-path="url(#pb0dd0b35ce)">
     <use xlink:href="#C0_0_75f317027f" x="56.935344" y="255.580468" style="fill: #ff7f0e"/>
    </g>
    <g clip-path="url(#pb0dd0b35ce)">
     <use xlink:href="#C0_0_75f317027f" x="43.680891" y="106.811785" style="fill: #ff7f0e"/>
    </g>
    <g clip-path="url(#pb0dd0b35ce)">
     <use xlink:href="#C0_0_75f317027f" x="308.061196" y="243.766867" style="fill: #1f77b4"/>
    </g>
    <g clip-path="url(#pb0dd0b35ce)">
     <use xlink:href="#C0_0_75f317027f" x="350.080755" y="233.783678" style="fill: #1f77b4"/>
    </g>
    <g clip-path="url(#pb0dd0b35ce)">
     <use xlink:href="#C0_0_75f317027f" x="356.378529" y="173.210024" style="fill: #1f77b4"/>
    </g>
    <g clip-path="url(#pb0dd0b35ce)">
     <use xlink:href="#C0_0_75f317027f" x="327.112013" y="203.09435" style="fill: #1f77b4"/>
    </g>
    <g clip-path="url(#pb0dd0b35ce)">
     <use xlink:href="#C0_0_75f317027f" x="299.439687" y="237.872871" style="fill: #1f77b4"/>
    </g>
    <g clip-path="url(#pb0dd0b35ce)">
     <use xlink:href="#C0_0_75f317027f" x="352.243145" y="239.813578" style="fill: #1f77b4"/>
    </g>
    <g clip-path="url(#pb0dd0b35ce)">
     <use xlink:href="#C0_0_75f317027f" x="63.460171" y="238.276032" style="fill: #ff7f0e"/>
    </g>
    <g clip-path="url(#pb0dd0b35ce)">
     <use xlink:href="#C0_0_75f317027f" x="54.752547" y="263.784475" style="fill: #ff7f0e"/>
    </g>
    <g clip-path="url(#pb0dd0b35ce)">
     <use xlink:href="#C0_0_75f317027f" x="46.285068" y="101.275381" style="fill: #ff7f0e"/>
    </g>
    <g clip-path="url(#pb0dd0b35ce)">
     <use xlink:href="#C0_0_75f317027f" x="59.609544" y="241.658972" style="fill: #ff7f0e"/>
    </g>
    <g clip-path="url(#pb0dd0b35ce)">
     <use xlink:href="#C0_0_75f317027f" x="59.206965" y="39.462112" style="fill: #ff7f0e"/>
    </g>
    <g clip-path="url(#pb0dd0b35ce)">
     <use xlink:href="#C0_0_75f317027f" x="46.210977" y="249.565591" style="fill: #ff7f0e"/>
    </g>
    <g clip-path="url(#pb0dd0b35ce)">
     <use xlink:href="#C0_0_75f317027f" x="97.18775" y="143.815952" style="fill: #ff7f0e"/>
    </g>
    <g clip-path="url(#pb0dd0b35ce)">
     <use xlink:href="#C0_0_75f317027f" x="60.071294" y="34.414125" style="fill: #ff7f0e"/>
    </g>
    <g clip-path="url(#pb0dd0b35ce)">
     <use xlink:href="#C0_0_75f317027f" x="338.031036" y="172.232687" style="fill: #1f77b4"/>
    </g>
    <g clip-path="url(#pb0dd0b35ce)">
     <use xlink:href="#C0_0_75f317027f" x="301.288941" y="240.085858" style="fill: #1f77b4"/>
    </g>
    <g clip-path="url(#pb0dd0b35ce)">
     <use xlink:href="#C0_0_75f317027f" x="322.967472" y="236.887021" style="fill: #1f77b4"/>
    </g>
    <g clip-path="url(#pb0dd0b35ce)">
     <use xlink:href="#C0_0_75f317027f" x="59.445281" y="276.334125" style="fill: #ff7f0e"/>
    </g>
    <g clip-path="url(#pb0dd0b35ce)">
     <use xlink:href="#C0_0_75f317027f" x="320.890623" y="250.110638" style="fill: #1f77b4"/>
    </g>
    <g clip-path="url(#pb0dd0b35ce)">
     <use xlink:href="#C0_0_75f317027f" x="332.572072" y="181.816483" style="fill: #1f77b4"/>
    </g>
    <g clip-path="url(#pb0dd0b35ce)">
     <use xlink:href="#C0_0_75f317027f" x="62.557805" y="270.024698" style="fill: #ff7f0e"/>
    </g>
    <g clip-path="url(#pb0dd0b35ce)">
     <use xlink:href="#C0_0_75f317027f" x="47.452642" y="257.45677" style="fill: #ff7f0e"/>
    </g>
    <g clip-path="url(#pb0dd0b35ce)">
     <use xlink:href="#C0_0_75f317027f" x="65.291788" y="80.251294" style="fill: #ff7f0e"/>
    </g>
    <g clip-path="url(#pb0dd0b35ce)">
     <use xlink:href="#C0_0_75f317027f" x="38.249474" y="113.510311" style="fill: #ff7f0e"/>
    </g>
    <g clip-path="url(#pb0dd0b35ce)">
     <use xlink:href="#C0_0_75f317027f" x="347.338832" y="171.655063" style="fill: #1f77b4"/>
    </g>
    <g clip-path="url(#pb0dd0b35ce)">
     <use xlink:href="#C0_0_75f317027f" x="64.051166" y="49.858797" style="fill: #ff7f0e"/>
    </g>
    <g clip-path="url(#pb0dd0b35ce)">
     <use xlink:href="#C0_0_75f317027f" x="63.325749" y="268.436227" style="fill: #ff7f0e"/>
    </g>
    <g clip-path="url(#pb0dd0b35ce)">
     <use xlink:href="#C0_0_75f317027f" x="97.367262" y="145.330169" style="fill: #ff7f0e"/>
    </g>
    <g clip-path="url(#pb0dd0b35ce)">
     <use xlink:href="#C0_0_75f317027f" x="67.172287" y="250.433913" style="fill: #ff7f0e"/>
    </g>
    <g clip-path="url(#pb0dd0b35ce)">
     <use xlink:href="#C0_0_75f317027f" x="351.329471" y="181.880151" style="fill: #1f77b4"/>
    </g>
    <g clip-path="url(#pb0dd0b35ce)">
     <use xlink:href="#C0_0_75f317027f" x="344.831431" y="173.249125" style="fill: #1f77b4"/>
    </g>
    <g clip-path="url(#pb0dd0b35ce)">
     <use xlink:href="#C0_0_75f317027f" x="62.426525" y="47.887849" style="fill: #ff7f0e"/>
    </g>
    <g clip-path="url(#pb0dd0b35ce)">
     <use xlink:href="#C0_0_75f317027f" x="323.16869" y="212.921785" style="fill: #1f77b4"/>
    </g>
    <g clip-path="url(#pb0dd0b35ce)">
     <use xlink:href="#C0_0_75f317027f" x="55.197575" y="225.566192" style="fill: #ff7f0e"/>
    </g>
    <g clip-path="url(#pb0dd0b35ce)">
     <use xlink:href="#C0_0_75f317027f" x="64.910563" y="83.640813" style="fill: #ff7f0e"/>
    </g>
    <g clip-path="url(#pb0dd0b35ce)">
     <use xlink:href="#C0_0_75f317027f" x="347.624805" y="229.835926" style="fill: #1f77b4"/>
    </g>
    <g clip-path="url(#pb0dd0b35ce)">
     <use xlink:href="#C0_0_75f317027f" x="307.591017" y="242.883814" style="fill: #1f77b4"/>
    </g>
    <g clip-path="url(#pb0dd0b35ce)">
     <use xlink:href="#C0_0_75f317027f" x="329.484185" y="205.054142" style="fill: #1f77b4"/>
    </g>
    <g clip-path="url(#pb0dd0b35ce)">
     <use xlink:href="#C0_0_75f317027f" x="65.479336" y="45.119369" style="fill: #ff7f0e"/>
    </g>
    <g clip-path="url(#pb0dd0b35ce)">
     <use xlink:href="#C0_0_75f317027f" x="56.690363" y="46.248132" style="fill: #ff7f0e"/>
    </g>
    <g clip-path="url(#pb0dd0b35ce)">
     <use xlink:href="#C0_0_75f317027f" x="303.506221" y="234.599266" style="fill: #1f77b4"/>
    </g>
    <g clip-path="url(#pb0dd0b35ce)">
     <use xlink:href="#C0_0_75f317027f" x="57.759504" y="87.739534" style="fill: #ff7f0e"/>
    </g>
    <g clip-path="url(#pb0dd0b35ce)">
     <use xlink:href="#C0_0_75f317027f" x="337.81833" y="239.730978" style="fill: #1f77b4"/>
    </g>
    <g clip-path="url(#pb0dd0b35ce)">
     <use xlink:href="#C0_0_75f317027f" x="47.685825" y="228.270713" style="fill: #ff7f0e"/>
    </g>
    <g clip-path="url(#pb0dd0b35ce)">
     <use xlink:href="#C0_0_75f317027f" x="356.613464" y="183.679251" style="fill: #1f77b4"/>
    </g>
    <g clip-path="url(#pb0dd0b35ce)">
     <use xlink:href="#C0_0_75f317027f" x="322.635044" y="202.201226" style="fill: #1f77b4"/>
    </g>
    <g clip-path="url(#pb0dd0b35ce)">
     <use xlink:href="#C0_0_75f317027f" x="303.415438" y="234.161273" style="fill: #1f77b4"/>
    </g>
    <g clip-path="url(#pb0dd0b35ce)">
     <use xlink:href="#C0_0_75f317027f" x="321.326249" y="210.712303" style="fill: #1f77b4"/>
    </g>
    <g clip-path="url(#pb0dd0b35ce)">
     <use xlink:href="#C0_0_75f317027f" x="324.607523" y="209.267511" style="fill: #1f77b4"/>
    </g>
    <g clip-path="url(#pb0dd0b35ce)">
     <use xlink:href="#C0_0_75f317027f" x="98.459436" y="147.726327" style="fill: #ff7f0e"/>
    </g>
    <g clip-path="url(#pb0dd0b35ce)">
     <use xlink:href="#C0_0_75f317027f" x="96.483064" y="142.166887" style="fill: #ff7f0e"/>
    </g>
    <g clip-path="url(#pb0dd0b35ce)">
     <use xlink:href="#C0_0_75f317027f" x="59.562073" y="84.259626" style="fill: #ff7f0e"/>
    </g>
    <g clip-path="url(#pb0dd0b35ce)">
     <use xlink:href="#C0_0_75f317027f" x="350.078153" y="176.416163" style="fill: #1f77b4"/>
    </g>
    <g clip-path="url(#pb0dd0b35ce)">
     <use xlink:href="#C0_0_75f317027f" x="61.216381" y="88.197238" style="fill: #ff7f0e"/>
    </g>
    <g clip-path="url(#pb0dd0b35ce)">
     <use xlink:href="#C0_0_75f317027f" x="44.510047" y="103.605159" style="fill: #ff7f0e"/>
    </g>
    <g clip-path="url(#pb0dd0b35ce)">
     <use xlink:href="#C0_0_75f317027f" x="38.51962" y="119.606354" style="fill: #ff7f0e"/>
    </g>
    <g clip-path="url(#pb0dd0b35ce)">
     <use xlink:href="#C0_0_75f317027f" x="44.241202" y="115.014903" style="fill: #ff7f0e"/>
    </g>
    <g clip-path="url(#pb0dd0b35ce)">
     <use xlink:href="#C0_0_75f317027f" x="320.448416" y="246.048445" style="fill: #1f77b4"/>
    </g>
    <g clip-path="url(#pb0dd0b35ce)">
     <use xlink:href="#C0_0_75f317027f" x="337.97974" y="240.336326" style="fill: #1f77b4"/>
    </g>
    <g clip-path="url(#pb0dd0b35ce)">
     <use xlink:href="#C0_0_75f317027f" x="353.493986" y="167.331482" style="fill: #1f77b4"/>
    </g>
    <g clip-path="url(#pb0dd0b35ce)">
     <use xlink:href="#C0_0_75f317027f" x="65.951447" y="246.491321" style="fill: #ff7f0e"/>
    </g>
    <g clip-path="url(#pb0dd0b35ce)">
     <use xlink:href="#C0_0_75f317027f" x="355.93864" y="193.36195" style="fill: #1f77b4"/>
    </g>
    <g clip-path="url(#pb0dd0b35ce)">
     <use xlink:href="#C0_0_75f317027f" x="98.110559" y="145.044452" style="fill: #ff7f0e"/>
    </g>
    <g clip-path="url(#pb0dd0b35ce)">
     <use xlink:href="#C0_0_75f317027f" x="66.658706" y="78.693064" style="fill: #ff7f0e"/>
    </g>
    <g clip-path="url(#pb0dd0b35ce)">
     <use xlink:href="#C0_0_75f317027f" x="57.979525" y="232.429081" style="fill: #ff7f0e"/>
    </g>
    <g clip-path="url(#pb0dd0b35ce)">
     <use xlink:href="#C0_0_75f317027f" x="314.926964" y="243.655292" style="fill: #1f77b4"/>
    </g>
    <g clip-path="url(#pb0dd0b35ce)">
     <use xlink:href="#C0_0_75f317027f" x="351.284034" y="199.738883" style="fill: #1f77b4"/>
    </g>
    <g clip-path="url(#pb0dd0b35ce)">
     <use xlink:href="#C0_0_75f317027f" x="351.492813" y="164.715458" style="fill: #1f77b4"/>
    </g>
    <g clip-path="url(#pb0dd0b35ce)">
     <use xlink:href="#C0_0_75f317027f" x="352.918213" y="237.435239" style="fill: #1f77b4"/>
    </g>
    <g clip-path="url(#pb0dd0b35ce)">
     <use xlink:href="#C0_0_75f317027f" x="349.533264" y="241.962786" style="fill: #1f77b4"/>
    </g>
    <g clip-path="url(#pb0dd0b35ce)">
     <use xlink:href="#C0_0_75f317027f" x="50.534044" y="98.991869" style="fill: #ff7f0e"/>
    </g>
    <g clip-path="url(#pb0dd0b35ce)">
     <use xlink:href="#C0_0_75f317027f" x="63.980649" y="241.905601" style="fill: #ff7f0e"/>
    </g>
    <g clip-path="url(#pb0dd0b35ce)">
     <use xlink:href="#C0_0_75f317027f" x="337.672143" y="180.209192" style="fill: #1f77b4"/>
    </g>
    <g clip-path="url(#pb0dd0b35ce)">
     <use xlink:href="#C0_0_75f317027f" x="54.188456" y="223.849273" style="fill: #ff7f0e"/>
    </g>
    <g clip-path="url(#pb0dd0b35ce)">
     <use xlink:href="#C0_0_75f317027f" x="37.110852" y="117.931333" style="fill: #ff7f0e"/>
    </g>
    <g clip-path="url(#pb0dd0b35ce)">
     <use xlink:href="#C0_0_75f317027f" x="58.60745" y="45.256329" style="fill: #ff7f0e"/>
    </g>
    <g clip-path="url(#pb0dd0b35ce)">
     <use xlink:href="#C0_0_75f317027f" x="356.088189" y="194.423944" style="fill: #1f77b4"/>
    </g>
    <g clip-path="url(#pb0dd0b35ce)">
     <use xlink:href="#C0_0_75f317027f" x="46.895112" y="252.680466" style="fill: #ff7f0e"/>
    </g>
    <g clip-path="url(#pb0dd0b35ce)">
     <use xlink:href="#C0_0_75f317027f" x="300.287601" y="237.766053" style="fill: #1f77b4"/>
    </g>
    <g clip-path="url(#pb0dd0b35ce)">
     <use xlink:href="#C0_0_75f317027f" x="299.099763" y="239.115727" style="fill: #1f77b4"/>
    </g>
    <g clip-path="url(#pb0dd0b35ce)">
     <use xlink:href="#C0_0_75f317027f" x="355.244924" y="171.955539" style="fill: #1f77b4"/>
    </g>
    <g clip-path="url(#pb0dd0b35ce)">
     <use xlink:href="#C0_0_75f317027f" x="96.040023" y="141.026467" style="fill: #ff7f0e"/>
    </g>
    <g clip-path="url(#pb0dd0b35ce)">
     <use xlink:href="#C0_0_75f317027f" x="334.083837" y="181.397979" style="fill: #1f77b4"/>
    </g>
    <g clip-path="url(#pb0dd0b35ce)">
     <use xlink:href="#C0_0_75f317027f" x="39.868224" y="129.478761" style="fill: #ff7f0e"/>
    </g>
    <g clip-path="url(#pb0dd0b35ce)">
     <use xlink:href="#C0_0_75f317027f" x="323.230934" y="217.870605" style="fill: #1f77b4"/>
    </g>
    <g clip-path="url(#pb0dd0b35ce)">
     <use xlink:href="#C0_0_75f317027f" x="357.251351" y="206.75658" style="fill: #1f77b4"/>
    </g>
    <g clip-path="url(#pb0dd0b35ce)">
     <use xlink:href="#C0_0_75f317027f" x="348.767155" y="182.223109" style="fill: #1f77b4"/>
    </g>
    <g clip-path="url(#pb0dd0b35ce)">
     <use xlink:href="#C0_0_75f317027f" x="322.196315" y="230.501978" style="fill: #1f77b4"/>
    </g>
    <g clip-path="url(#pb0dd0b35ce)">
     <use xlink:href="#C0_0_75f317027f" x="311.455624" y="244.725396" style="fill: #1f77b4"/>
    </g>
    <g clip-path="url(#pb0dd0b35ce)">
     <use xlink:href="#C0_0_75f317027f" x="356.139704" y="194.502009" style="fill: #1f77b4"/>
    </g>
    <g clip-path="url(#pb0dd0b35ce)">
     <use xlink:href="#C0_0_75f317027f" x="308.149815" y="243.842441" style="fill: #1f77b4"/>
    </g>
    <g clip-path="url(#pb0dd0b35ce)">
     <use xlink:href="#C0_0_75f317027f" x="335.051667" y="176.921955" style="fill: #1f77b4"/>
    </g>
    <g clip-path="url(#pb0dd0b35ce)">
     <use xlink:href="#C0_0_75f317027f" x="316.292091" y="236.01027" style="fill: #1f77b4"/>
    </g>
    <g clip-path="url(#pb0dd0b35ce)">
     <use xlink:href="#C0_0_75f317027f" x="331.649422" y="182.576806" style="fill: #1f77b4"/>
    </g>
    <g clip-path="url(#pb0dd0b35ce)">
     <use xlink:href="#C0_0_75f317027f" x="297.267509" y="233.476052" style="fill: #1f77b4"/>
    </g>
    <g clip-path="url(#pb0dd0b35ce)">
     <use xlink:href="#C0_0_75f317027f" x="38.36235" y="109.001598" style="fill: #ff7f0e"/>
    </g>
    <g clip-path="url(#pb0dd0b35ce)">
     <use xlink:href="#C0_0_75f317027f" x="48.940008" y="228.405545" style="fill: #ff7f0e"/>
    </g>
    <g clip-path="url(#pb0dd0b35ce)">
     <use xlink:href="#C0_0_75f317027f" x="357.445976" y="169.384056" style="fill: #1f77b4"/>
    </g>
    <g clip-path="url(#pb0dd0b35ce)">
     <use xlink:href="#C0_0_75f317027f" x="356.507574" y="181.30222" style="fill: #1f77b4"/>
    </g>
    <g clip-path="url(#pb0dd0b35ce)">
     <use xlink:href="#C0_0_75f317027f" x="337.890336" y="178.723907" style="fill: #1f77b4"/>
    </g>
    <g clip-path="url(#pb0dd0b35ce)">
     <use xlink:href="#C0_0_75f317027f" x="66.299658" y="253.916617" style="fill: #ff7f0e"/>
    </g>
    <g clip-path="url(#pb0dd0b35ce)">
     <use xlink:href="#C0_0_75f317027f" x="344.988604" y="169.622812" style="fill: #1f77b4"/>
    </g>
    <g clip-path="url(#pb0dd0b35ce)">
     <use xlink:href="#C0_0_75f317027f" x="309.738725" y="232.47173" style="fill: #1f77b4"/>
    </g>
    <g clip-path="url(#pb0dd0b35ce)">
     <use xlink:href="#C0_0_75f317027f" x="41.377175" y="128.508908" style="fill: #ff7f0e"/>
    </g>
    <g clip-path="url(#pb0dd0b35ce)">
     <use xlink:href="#C0_0_75f317027f" x="304.546274" y="233.75896" style="fill: #1f77b4"/>
    </g>
    <g clip-path="url(#pb0dd0b35ce)">
     <use xlink:href="#C0_0_75f317027f" x="347.148303" y="243.422267" style="fill: #1f77b4"/>
    </g>
    <g clip-path="url(#pb0dd0b35ce)">
     <use xlink:href="#C0_0_75f317027f" x="65.957938" y="75.077586" style="fill: #ff7f0e"/>
    </g>
    <g clip-path="url(#pb0dd0b35ce)">
     <use xlink:href="#C0_0_75f317027f" x="53.786122" y="259.901823" style="fill: #ff7f0e"/>
    </g>
    <g clip-path="url(#pb0dd0b35ce)">
     <use xlink:href="#C0_0_75f317027f" x="64.844179" y="52.984521" style="fill: #ff7f0e"/>
    </g>
    <g clip-path="url(#pb0dd0b35ce)">
     <use xlink:href="#C0_0_75f317027f" x="46.584848" y="236.010256" style="fill: #ff7f0e"/>
    </g>
    <g clip-path="url(#pb0dd0b35ce)">
     <use xlink:href="#C0_0_75f317027f" x="65.400331" y="243.33064" style="fill: #ff7f0e"/>
    </g>
    <g clip-path="url(#pb0dd0b35ce)">
     <use xlink:href="#C0_0_75f317027f" x="361.294033" y="183.004255" style="fill: #1f77b4"/>
    </g>
    <g clip-path="url(#pb0dd0b35ce)">
     <use xlink:href="#C0_0_75f317027f" x="44.826595" y="121.747981" style="fill: #ff7f0e"/>
    </g>
    <g clip-path="url(#pb0dd0b35ce)">
     <use xlink:href="#C0_0_75f317027f" x="327.550742" y="202.409268" style="fill: #1f77b4"/>
    </g>
    <g clip-path="url(#pb0dd0b35ce)">
     <use xlink:href="#C0_0_75f317027f" x="40.571252" y="128.526991" style="fill: #ff7f0e"/>
    </g>
   </g>
   <g id="PathCollection_2"/>
   <g id="PathCollection_3"/>
   <g id="matplotlib.axis_1">
    <g id="text_1">
     <!-- UMAP1 -->
     <g transform="translate(181.848281 300.028562) scale(0.1 -0.1)">
      <defs>
       <path id="DejaVuSans-55" d="M 556 4666 
L 1191 4666 
L 1191 1831 
Q 1191 1081 1462 751 
Q 1734 422 2344 422 
Q 2950 422 3222 751 
Q 3494 1081 3494 1831 
L 3494 4666 
L 4128 4666 
L 4128 1753 
Q 4128 841 3676 375 
Q 3225 -91 2344 -91 
Q 1459 -91 1007 375 
Q 556 841 556 1753 
L 556 4666 
z
" transform="scale(0.015625)"/>
       <path id="DejaVuSans-4d" d="M 628 4666 
L 1569 4666 
L 2759 1491 
L 3956 4666 
L 4897 4666 
L 4897 0 
L 4281 0 
L 4281 4097 
L 3078 897 
L 2444 897 
L 1241 4097 
L 1241 0 
L 628 0 
L 628 4666 
z
" transform="scale(0.015625)"/>
       <path id="DejaVuSans-41" d="M 2188 4044 
L 1331 1722 
L 3047 1722 
L 2188 4044 
z
M 1831 4666 
L 2547 4666 
L 4325 0 
L 3669 0 
L 3244 1197 
L 1141 1197 
L 716 0 
L 50 0 
L 1831 4666 
z
" transform="scale(0.015625)"/>
       <path id="DejaVuSans-50" d="M 1259 4147 
L 1259 2394 
L 2053 2394 
Q 2494 2394 2734 2622 
Q 2975 2850 2975 3272 
Q 2975 3691 2734 3919 
Q 2494 4147 2053 4147 
L 1259 4147 
z
M 628 4666 
L 2053 4666 
Q 2838 4666 3239 4311 
Q 3641 3956 3641 3272 
Q 3641 2581 3239 2228 
Q 2838 1875 2053 1875 
L 1259 1875 
L 1259 0 
L 628 0 
L 628 4666 
z
" transform="scale(0.015625)"/>
       <path id="DejaVuSans-31" d="M 794 531 
L 1825 531 
L 1825 4091 
L 703 3866 
L 703 4441 
L 1819 4666 
L 2450 4666 
L 2450 531 
L 3481 531 
L 3481 0 
L 794 0 
L 794 531 
z
" transform="scale(0.015625)"/>
      </defs>
      <use xlink:href="#DejaVuSans-55"/>
      <use xlink:href="#DejaVuSans-4d" x="73.193359"/>
      <use xlink:href="#DejaVuSans-41" x="159.472656"/>
      <use xlink:href="#DejaVuSans-50" x="227.880859"/>
      <use xlink:href="#DejaVuSans-31" x="288.183594"/>
     </g>
    </g>
   </g>
   <g id="matplotlib.axis_2">
    <g id="text_2">
     <!-- UMAP2 -->
     <g transform="translate(14.798438 172.963969) rotate(-90) scale(0.1 -0.1)">
      <defs>
       <path id="DejaVuSans-32" d="M 1228 531 
L 3431 531 
L 3431 0 
L 469 0 
L 469 531 
Q 828 903 1448 1529 
Q 2069 2156 2228 2338 
Q 2531 2678 2651 2914 
Q 2772 3150 2772 3378 
Q 2772 3750 2511 3984 
Q 2250 4219 1831 4219 
Q 1534 4219 1204 4116 
Q 875 4013 500 3803 
L 500 4441 
Q 881 4594 1212 4672 
Q 1544 4750 1819 4750 
Q 2544 4750 2975 4387 
Q 3406 4025 3406 3419 
Q 3406 3131 3298 2873 
Q 3191 2616 2906 2266 
Q 2828 2175 2409 1742 
Q 1991 1309 1228 531 
z
" transform="scale(0.015625)"/>
      </defs>
      <use xlink:href="#DejaVuSans-55"/>
      <use xlink:href="#DejaVuSans-4d" x="73.193359"/>
      <use xlink:href="#DejaVuSans-41" x="159.472656"/>
      <use xlink:href="#DejaVuSans-50" x="227.880859"/>
      <use xlink:href="#DejaVuSans-32" x="288.183594"/>
     </g>
    </g>
   </g>
   <g id="patch_3">
    <path d="M 20.878125 288.430125 
L 20.878125 22.318125 
" style="fill: none; stroke: #000000; stroke-width: 0.8; stroke-linejoin: miter; stroke-linecap: square"/>
   </g>
   <g id="patch_4">
    <path d="M 377.998125 288.430125 
L 377.998125 22.318125 
" style="fill: none; stroke: #000000; stroke-width: 0.8; stroke-linejoin: miter; stroke-linecap: square"/>
   </g>
   <g id="patch_5">
    <path d="M 20.878125 288.430125 
L 377.998125 288.430125 
" style="fill: none; stroke: #000000; stroke-width: 0.8; stroke-linejoin: miter; stroke-linecap: square"/>
   </g>
   <g id="patch_6">
    <path d="M 20.878125 22.318125 
L 377.998125 22.318125 
" style="fill: none; stroke: #000000; stroke-width: 0.8; stroke-linejoin: miter; stroke-linecap: square"/>
   </g>
   <g id="text_3">
    <!-- condition -->
    <g transform="translate(171.696563 16.318125) scale(0.12 -0.12)">
     <defs>
      <path id="DejaVuSans-63" d="M 3122 3366 
L 3122 2828 
Q 2878 2963 2633 3030 
Q 2388 3097 2138 3097 
Q 1578 3097 1268 2742 
Q 959 2388 959 1747 
Q 959 1106 1268 751 
Q 1578 397 2138 397 
Q 2388 397 2633 464 
Q 2878 531 3122 666 
L 3122 134 
Q 2881 22 2623 -34 
Q 2366 -91 2075 -91 
Q 1284 -91 818 406 
Q 353 903 353 1747 
Q 353 2603 823 3093 
Q 1294 3584 2113 3584 
Q 2378 3584 2631 3529 
Q 2884 3475 3122 3366 
z
" transform="scale(0.015625)"/>
      <path id="DejaVuSans-6f" d="M 1959 3097 
Q 1497 3097 1228 2736 
Q 959 2375 959 1747 
Q 959 1119 1226 758 
Q 1494 397 1959 397 
Q 2419 397 2687 759 
Q 2956 1122 2956 1747 
Q 2956 2369 2687 2733 
Q 2419 3097 1959 3097 
z
M 1959 3584 
Q 2709 3584 3137 3096 
Q 3566 2609 3566 1747 
Q 3566 888 3137 398 
Q 2709 -91 1959 -91 
Q 1206 -91 779 398 
Q 353 888 353 1747 
Q 353 2609 779 3096 
Q 1206 3584 1959 3584 
z
" transform="scale(0.015625)"/>
      <path id="DejaVuSans-6e" d="M 3513 2113 
L 3513 0 
L 2938 0 
L 2938 2094 
Q 2938 2591 2744 2837 
Q 2550 3084 2163 3084 
Q 1697 3084 1428 2787 
Q 1159 2491 1159 1978 
L 1159 0 
L 581 0 
L 581 3500 
L 1159 3500 
L 1159 2956 
Q 1366 3272 1645 3428 
Q 1925 3584 2291 3584 
Q 2894 3584 3203 3211 
Q 3513 2838 3513 2113 
z
" transform="scale(0.015625)"/>
      <path id="DejaVuSans-64" d="M 2906 2969 
L 2906 4863 
L 3481 4863 
L 3481 0 
L 2906 0 
L 2906 525 
Q 2725 213 2448 61 
Q 2172 -91 1784 -91 
Q 1150 -91 751 415 
Q 353 922 353 1747 
Q 353 2572 751 3078 
Q 1150 3584 1784 3584 
Q 2172 3584 2448 3432 
Q 2725 3281 2906 2969 
z
M 947 1747 
Q 947 1113 1208 752 
Q 1469 391 1925 391 
Q 2381 391 2643 752 
Q 2906 1113 2906 1747 
Q 2906 2381 2643 2742 
Q 2381 3103 1925 3103 
Q 1469 3103 1208 2742 
Q 947 2381 947 1747 
z
" transform="scale(0.015625)"/>
      <path id="DejaVuSans-69" d="M 603 3500 
L 1178 3500 
L 1178 0 
L 603 0 
L 603 3500 
z
M 603 4863 
L 1178 4863 
L 1178 4134 
L 603 4134 
L 603 4863 
z
" transform="scale(0.015625)"/>
      <path id="DejaVuSans-74" d="M 1172 4494 
L 1172 3500 
L 2356 3500 
L 2356 3053 
L 1172 3053 
L 1172 1153 
Q 1172 725 1289 603 
Q 1406 481 1766 481 
L 2356 481 
L 2356 0 
L 1766 0 
Q 1100 0 847 248 
Q 594 497 594 1153 
L 594 3053 
L 172 3053 
L 172 3500 
L 594 3500 
L 594 4494 
L 1172 4494 
z
" transform="scale(0.015625)"/>
     </defs>
     <use xlink:href="#DejaVuSans-63"/>
     <use xlink:href="#DejaVuSans-6f" x="54.980469"/>
     <use xlink:href="#DejaVuSans-6e" x="116.162109"/>
     <use xlink:href="#DejaVuSans-64" x="179.541016"/>
     <use xlink:href="#DejaVuSans-69" x="243.017578"/>
     <use xlink:href="#DejaVuSans-74" x="270.800781"/>
     <use xlink:href="#DejaVuSans-69" x="310.009766"/>
     <use xlink:href="#DejaVuSans-6f" x="337.792969"/>
     <use xlink:href="#DejaVuSans-6e" x="398.974609"/>
    </g>
   </g>
   <g id="legend_1">
    <g id="PathCollection_4">
     <defs>
      <path id="m84ba6ef548" d="M 0 3 
C 0.795609 3 1.55874 2.683901 2.12132 2.12132 
C 2.683901 1.55874 3 0.795609 3 0 
C 3 -0.795609 2.683901 -1.55874 2.12132 -2.12132 
C 1.55874 -2.683901 0.795609 -3 0 -3 
C -0.795609 -3 -1.55874 -2.683901 -2.12132 -2.12132 
C -2.683901 -1.55874 -3 -0.795609 -3 0 
C -3 0.795609 -2.683901 1.55874 -2.12132 2.12132 
C -1.55874 2.683901 -0.795609 3 0 3 
z
" style="stroke: #1f77b4"/>
     </defs>
     <g>
      <use xlink:href="#m84ba6ef548" x="400.798125" y="146.7285" style="fill: #1f77b4; stroke: #1f77b4"/>
     </g>
    </g>
    <g id="text_4">
     <!-- normal -->
     <g transform="translate(422.398125 149.8785) scale(0.12 -0.12)">
      <defs>
       <path id="DejaVuSans-72" d="M 2631 2963 
Q 2534 3019 2420 3045 
Q 2306 3072 2169 3072 
Q 1681 3072 1420 2755 
Q 1159 2438 1159 1844 
L 1159 0 
L 581 0 
L 581 3500 
L 1159 3500 
L 1159 2956 
Q 1341 3275 1631 3429 
Q 1922 3584 2338 3584 
Q 2397 3584 2469 3576 
Q 2541 3569 2628 3553 
L 2631 2963 
z
" transform="scale(0.015625)"/>
       <path id="DejaVuSans-6d" d="M 3328 2828 
Q 3544 3216 3844 3400 
Q 4144 3584 4550 3584 
Q 5097 3584 5394 3201 
Q 5691 2819 5691 2113 
L 5691 0 
L 5113 0 
L 5113 2094 
Q 5113 2597 4934 2840 
Q 4756 3084 4391 3084 
Q 3944 3084 3684 2787 
Q 3425 2491 3425 1978 
L 3425 0 
L 2847 0 
L 2847 2094 
Q 2847 2600 2669 2842 
Q 2491 3084 2119 3084 
Q 1678 3084 1418 2786 
Q 1159 2488 1159 1978 
L 1159 0 
L 581 0 
L 581 3500 
L 1159 3500 
L 1159 2956 
Q 1356 3278 1631 3431 
Q 1906 3584 2284 3584 
Q 2666 3584 2933 3390 
Q 3200 3197 3328 2828 
z
" transform="scale(0.015625)"/>
       <path id="DejaVuSans-61" d="M 2194 1759 
Q 1497 1759 1228 1600 
Q 959 1441 959 1056 
Q 959 750 1161 570 
Q 1363 391 1709 391 
Q 2188 391 2477 730 
Q 2766 1069 2766 1631 
L 2766 1759 
L 2194 1759 
z
M 3341 1997 
L 3341 0 
L 2766 0 
L 2766 531 
Q 2569 213 2275 61 
Q 1981 -91 1556 -91 
Q 1019 -91 701 211 
Q 384 513 384 1019 
Q 384 1609 779 1909 
Q 1175 2209 1959 2209 
L 2766 2209 
L 2766 2266 
Q 2766 2663 2505 2880 
Q 2244 3097 1772 3097 
Q 1472 3097 1187 3025 
Q 903 2953 641 2809 
L 641 3341 
Q 956 3463 1253 3523 
Q 1550 3584 1831 3584 
Q 2591 3584 2966 3190 
Q 3341 2797 3341 1997 
z
" transform="scale(0.015625)"/>
       <path id="DejaVuSans-6c" d="M 603 4863 
L 1178 4863 
L 1178 0 
L 603 0 
L 603 4863 
z
" transform="scale(0.015625)"/>
      </defs>
      <use xlink:href="#DejaVuSans-6e"/>
      <use xlink:href="#DejaVuSans-6f" x="63.378906"/>
      <use xlink:href="#DejaVuSans-72" x="124.560547"/>
      <use xlink:href="#DejaVuSans-6d" x="163.923828"/>
      <use xlink:href="#DejaVuSans-61" x="261.335938"/>
      <use xlink:href="#DejaVuSans-6c" x="322.615234"/>
     </g>
    </g>
    <g id="PathCollection_5">
     <defs>
      <path id="mcd3a64f276" d="M 0 3 
C 0.795609 3 1.55874 2.683901 2.12132 2.12132 
C 2.683901 1.55874 3 0.795609 3 0 
C 3 -0.795609 2.683901 -1.55874 2.12132 -2.12132 
C 1.55874 -2.683901 0.795609 -3 0 -3 
C -0.795609 -3 -1.55874 -2.683901 -2.12132 -2.12132 
C -2.683901 -1.55874 -3 -0.795609 -3 0 
C -3 0.795609 -2.683901 1.55874 -2.12132 2.12132 
C -1.55874 2.683901 -0.795609 3 0 3 
z
" style="stroke: #ff7f0e"/>
     </defs>
     <g>
      <use xlink:href="#mcd3a64f276" x="400.798125" y="164.34225" style="fill: #ff7f0e; stroke: #ff7f0e"/>
     </g>
    </g>
    <g id="text_5">
     <!-- tumor -->
     <g transform="translate(422.398125 167.49225) scale(0.12 -0.12)">
      <defs>
       <path id="DejaVuSans-75" d="M 544 1381 
L 544 3500 
L 1119 3500 
L 1119 1403 
Q 1119 906 1312 657 
Q 1506 409 1894 409 
Q 2359 409 2629 706 
Q 2900 1003 2900 1516 
L 2900 3500 
L 3475 3500 
L 3475 0 
L 2900 0 
L 2900 538 
Q 2691 219 2414 64 
Q 2138 -91 1772 -91 
Q 1169 -91 856 284 
Q 544 659 544 1381 
z
M 1991 3584 
L 1991 3584 
z
" transform="scale(0.015625)"/>
      </defs>
      <use xlink:href="#DejaVuSans-74"/>
      <use xlink:href="#DejaVuSans-75" x="39.208984"/>
      <use xlink:href="#DejaVuSans-6d" x="102.587891"/>
      <use xlink:href="#DejaVuSans-6f" x="200"/>
      <use xlink:href="#DejaVuSans-72" x="261.181641"/>
     </g>
    </g>
   </g>
  </g>
 </g>
 <defs>
  <clipPath id="pb0dd0b35ce">
   <rect x="20.878125" y="22.318125" width="357.12" height="266.112"/>
  </clipPath>
 </defs>
</svg>
